/* XPM */
static char * play_xpm[] = {
/**/
"24 24 4 1",
/*,S@,Y@,Z@|\@*/
" 	s None	m None	c None",
".	c gainsboro",
"X	c dark slate grey",
"o	c black",
/**/
"                        ",
"                        ",
"                        ",
"                        ",
"                        ",
"     ..                 ",
"     .X..               ",
"     .XXX..             ",
"     .XXXXX..           ",
"     .XXXXXXX..         ",
"     .XXXXXXXXX..       ",
"     .XXXXXXXXXXX..     ",
"     .XXXXXXXXXXXoo     ",
"     .XXXXXXXXXoo       ",
"     .XXXXXXXoo         ",
"     .XXXXXoo           ",
"     .XXXoo             ",
"     .Xoo               ",
"     .o                 ",
"                        ",
"                        ",
"                        ",
"                        ",
"                        "};
