/* XPM */
static char * previous_xpm[] = {
"24 24 4 1",
" 	s None	c None",
".	c black",
"X	c gainsboro",
"o	c dark slate grey",
"                        ",
"                        ",
"                        ",
"                        ",
"                        ",
"     .           XX     ",
"     .         XXo.     ",
"     .       XXooo.     ",
"     .     XXooooo.     ",
"     .   XXooooooo.     ",
"     . XXooooooooo.     ",
"     .Xooooooooooo.     ",
"     ..ooooooooooo.     ",
"     . ..ooooooooo.     ",
"     .   ..ooooooo.     ",
"     .     ..ooooo.     ",
"     .       ..ooo.     ",
"     .         ..o.     ",
"     .           ..     ",
"                        ",
"                        ",
"                        ",
"                        ",
"                        "};
