/* XPM */
static char * stop_xpm[] = {
"24 24 4 1",
" 	s None	c None",
".	c gainsboro",
"X	c dark slate grey",
"o	c black",
"                        ",
"                        ",
"                        ",
"                        ",
"                        ",
"     ..............     ",
"     .XXXXXXXXXXXXo     ",
"     .XXXXXXXXXXXXo     ",
"     .XXXXXXXXXXXXo     ",
"     .XXXXXXXXXXXXo     ",
"     .XXXXXXXXXXXXo     ",
"     .XXXXXXXXXXXXo     ",
"     .XXXXXXXXXXXXo     ",
"     .XXXXXXXXXXXXo     ",
"     .XXXXXXXXXXXXo     ",
"     .XXXXXXXXXXXXo     ",
"     .XXXXXXXXXXXXo     ",
"     .XXXXXXXXXXXXo     ",
"     oooooooooooooo     ",
"                        ",
"                        ",
"                        ",
"                        ",
"                        "};
